# xmcd CD database file
#
# Track frame offsets:
#	150
#	16939
#	32119
#	45866
#	65303
#	80272
#	95717
#	110459
#	128343
#	144849
#	163364
#	174748
#	198380
#	212222
#	228507
#
# Disc length: 3233 seconds
#
# Revision: 1
# Processed by: cddbd v1.5.1PL2 Copyright (c) Steve Scherf et al.
# Submitted via: CDex 1.50
#
DISCID=c30c9f0f
DTITLE=Stacie Orrico - STACIE ORRICO [Bonus Track]
DYEAR=1900
DGENRE=
TTITLE0=Stuck
TTITLE1=(There's Gotta Be) More To Life
TTITLE2=Bounce Back
TTITLE3=I Promise
TTITLE4=Security
TTITLE5=Instead
TTITLE6=Hesitation
TTITLE7=Strong Enough
TTITLE8=I Could Be The One
TTITLE9=Maybe I Won't Look Back
TTITLE10=Tight
TTITLE11=That's What Love's About
TTITLE12=Until I Find You
TTITLE13=Star Of My Story
TTITLE14=Stuck [Thunderpuss Radio Remix]
EXTD=
EXTT0=
EXTT1=
EXTT2=
EXTT3=
EXTT4=
EXTT5=
EXTT6=
EXTT7=
EXTT8=
EXTT9=
EXTT10=
EXTT11=
EXTT12=
EXTT13=
EXTT14=
PLAYORDER=
